<svg width="350" height="390" viewBox="0 0 350 390" fill="none" xmlns="http://www.w3.org/2000/svg">
<rect x="141" y="185" width="68.2139" height="128.131" rx="13.7769" fill="white" stroke="#323232" stroke-width="4" stroke-linecap="round"/>
<path d="M142.896 267.634V226.678H211.5C206.333 247.68 175.523 268.768 142.896 267.634Z" fill="#7E7E7E" fill-opacity="0.45"/>
<path d="M135 181.297C135 192.986 124.45 202.797 111 202.797C97.5501 202.797 87 192.986 87 181.297C87 169.609 97.5501 159.797 111 159.797C124.45 159.797 135 169.609 135 181.297Z" fill="white" stroke="#323232" stroke-width="4"/>
<path d="M218 181.297C218 192.986 228.55 202.797 242 202.797C255.45 202.797 266 192.986 266 181.297C266 169.609 255.45 159.797 242 159.797C228.55 159.797 218 169.609 218 181.297Z" fill="white" stroke="#323232" stroke-width="4"/>
<g clip-path="url(#clip0_202_339)">
<path d="M243 177.129C243 197.469 237.073 212.968 226.053 223.397C215.016 233.842 198.583 239.475 177.03 239.475C155.477 239.475 138.768 233.842 127.461 223.382C116.178 212.943 110 197.445 110 177.129C110 156.77 116.211 135.524 127.729 119.418C139.223 103.346 155.922 92.4753 177.03 92.4753C198.131 92.4753 214.56 103.339 225.788 119.4C237.045 135.501 243 156.751 243 177.129Z" fill="white" stroke="#323232" stroke-width="4" stroke-linecap="round"/>
<path d="M176.842 175.475C174.975 183.863 174 188.246 174 196.973C176.501 198.527 178.892 198.916 183 198.872" stroke="#323232" stroke-width="4" stroke-linecap="round" stroke-linejoin="round"/>
<path d="M141.768 182.547C143.829 182.547 145.657 181.432 146.953 179.704C148.249 177.977 149.035 175.613 149.035 173.024C149.035 170.434 148.249 168.07 146.953 166.343C145.657 164.615 143.829 163.5 141.768 163.5C139.706 163.5 137.878 164.615 136.582 166.343C135.287 168.07 134.5 170.434 134.5 173.024C134.5 175.613 135.287 177.977 136.582 179.704C137.878 181.432 139.706 182.547 141.768 182.547Z" fill="#323232" stroke="#323232" stroke-linecap="round"/>
<circle cx="144.616" cy="170.809" r="2.5" fill="white" stroke="#323232"/>
<path d="M213.768 182.547C215.829 182.547 217.657 181.432 218.953 179.704C220.249 177.977 221.035 175.613 221.035 173.024C221.035 170.434 220.249 168.07 218.953 166.343C217.657 164.615 215.829 163.5 213.768 163.5C211.706 163.5 209.878 164.615 208.582 166.343C207.287 168.07 206.5 170.434 206.5 173.024C206.5 175.613 207.287 177.977 208.582 179.704C209.878 181.432 211.706 182.547 213.768 182.547Z" fill="#323232" stroke="#323232" stroke-linecap="round"/>
<circle cx="216.616" cy="170.809" r="2" fill="white"/>
<path d="M168 210.475C171 214.142 178.8 219.275 186 210.475" stroke="#323232" stroke-width="4" stroke-linecap="round" stroke-linejoin="round"/>
<g filter="url(#filter0_f_202_339)">
<ellipse cx="139.5" cy="207.5" rx="9.5" ry="5.5" fill="#FC9D80"/>
</g>
<g filter="url(#filter1_f_202_339)">
<ellipse cx="218.5" cy="207.5" rx="9.5" ry="5.5" fill="#FC9D80"/>
</g>
</g>
<path d="M96.5001 119.797C94.8598 97.724 101 86.2973 119.5 81.7973C119.5 81.7973 174.5 27.2974 223 63.2974C271.5 99.2973 241.5 160.5 241.5 160.5C230 145 224.966 141.893 226 122.297C184.157 134.871 166.716 131.147 143.5 105.297C140.481 121.987 137 128 125 135C127.147 147.313 114.5 158 111 161.5C99.8362 149.258 97.7231 140.302 96.5001 119.797Z" fill="#323232"/>
<path d="M141.637 254.566C157.781 282.54 196.874 280.35 209.064 254.821C209.396 254.127 210.144 253.922 210.623 254.139C237.582 266.357 255.284 279.353 267.373 296.321C279.476 313.308 286.102 334.482 290.512 363.356C290.604 363.958 290.132 364.5 289.538 364.5H59.4712C58.8781 364.5 58.4054 363.956 58.5001 363.354C63.2635 333.036 71.0978 311.611 83.931 294.851C96.765 278.091 114.747 265.803 140.18 254.032C140.637 253.82 141.303 253.988 141.637 254.566Z" fill="white" stroke="#323232" stroke-width="4" stroke-linecap="round" stroke-linejoin="round"/>
<path fill-rule="evenodd" clip-rule="evenodd" d="M112 271.742C119.48 266.735 123.887 264.372 132 260.168V312H221V261.314C229.292 265.502 233.661 268.365 241 273.304V312C245.418 312 249 315.582 249 320V362.5H101V320C101 315.582 104.582 312 109 312H112V271.742Z" fill="#323232"/>
<path d="M241 362.5V327C241 322.582 237.418 319 233 319H117C112.582 319 109 322.582 109 327V362.5" stroke="white" stroke-width="0.5" stroke-linecap="round" stroke-dasharray="4 4"/>
<line x1="118.5" y1="311.5" x2="118.5" y2="271.5" stroke="white" stroke-linecap="round" stroke-dasharray="4 4"/>
<line x1="234.5" y1="311.5" x2="234.5" y2="271.5" stroke="white" stroke-linecap="round" stroke-dasharray="4 4"/>
<circle cx="119" cy="318" r="6" fill="white"/>
<circle cx="233" cy="318" r="6" fill="white"/>
<path d="M137 344C137 337.925 141.925 333 148 333H201C207.075 333 212 337.925 212 344V363H137V344Z" fill="white" fill-opacity="0.5"/>
<path d="M164.609 172.611C173.886 168.905 178.929 168.813 187.609 172.611" stroke="#323232" stroke-width="4" stroke-linecap="round"/>
<path d="M118 167.799L110.109 160.135" stroke="#323232" stroke-width="4"/>
<path d="M232.049 163.439L240.609 159.635" stroke="#323232" stroke-width="4"/>
<path fill-rule="evenodd" clip-rule="evenodd" d="M142.769 150.07L146.355 153.657L116.657 183.355L115.255 181.953C115.093 181.311 114.956 180.658 114.843 179.994C114.509 178.031 114.41 176.081 114.525 174.173L138.657 150.041C140.045 149.942 141.419 149.954 142.769 150.07Z" fill="white" fill-opacity="0.15"/>
<path d="M164.001 171.631C166.189 184.493 157.426 196.749 144.376 198.969C131.326 201.189 119.003 192.521 116.814 179.659C114.626 166.797 123.39 154.541 136.44 152.321C149.49 150.101 161.813 158.769 164.001 171.631Z" fill="url(#paint0_linear_202_339)" fill-opacity="0.3" stroke="#323232" stroke-width="4"/>
<path fill-rule="evenodd" clip-rule="evenodd" d="M237.886 176.612C237.957 174.865 237.848 173.086 237.543 171.296C237.512 171.111 237.478 170.927 237.443 170.744L234.941 168.243L203.78 199.404L204.681 200.305C207.396 201.086 210.273 201.434 213.217 201.28L237.886 176.612Z" fill="white" fill-opacity="0.15"/>
<path d="M235.571 171.631C237.759 184.493 228.996 196.749 215.946 198.969C202.896 201.189 190.573 192.521 188.384 179.659C186.196 166.797 194.96 154.541 208.01 152.321C221.06 150.101 233.383 158.769 235.571 171.631Z" fill="url(#paint1_linear_202_339)" fill-opacity="0.3" stroke="#323232" stroke-width="4"/>
<defs>
<filter id="filter0_f_202_339" x="118" y="190" width="43" height="35" filterUnits="userSpaceOnUse" color-interpolation-filters="sRGB">
<feFlood flood-opacity="0" result="BackgroundImageFix"/>
<feBlend mode="normal" in="SourceGraphic" in2="BackgroundImageFix" result="shape"/>
<feGaussianBlur stdDeviation="6" result="effect1_foregroundBlur_202_339"/>
</filter>
<filter id="filter1_f_202_339" x="197" y="190" width="43" height="35" filterUnits="userSpaceOnUse" color-interpolation-filters="sRGB">
<feFlood flood-opacity="0" result="BackgroundImageFix"/>
<feBlend mode="normal" in="SourceGraphic" in2="BackgroundImageFix" result="shape"/>
<feGaussianBlur stdDeviation="6" result="effect1_foregroundBlur_202_339"/>
</filter>
<linearGradient id="paint0_linear_202_339" x1="136.104" y1="150.349" x2="160.109" y2="199.635" gradientUnits="userSpaceOnUse">
<stop stop-color="white"/>
<stop offset="1" stop-color="#C0C8FE" stop-opacity="0"/>
</linearGradient>
<linearGradient id="paint1_linear_202_339" x1="207.674" y1="150.349" x2="231.679" y2="199.635" gradientUnits="userSpaceOnUse">
<stop stop-color="white"/>
<stop offset="1" stop-color="#C0C8FE" stop-opacity="0"/>
</linearGradient>
<clipPath id="clip0_202_339">
<rect width="137" height="190" fill="white" transform="translate(108 51.7974)"/>
</clipPath>
</defs>
</svg>
